<svg width="43" height="36" viewBox="0 0 43 36" fill="none" xmlns="http://www.w3.org/2000/svg">
<path d="M38.9331 26.8247L24.5998 5.96104C24.2872 5.50235 23.834 5.12082 23.2863 4.85537C22.7387 4.58993 22.1161 4.45007 21.4823 4.45007C20.8484 4.45007 20.2259 4.58993 19.6782 4.85537C19.1305 5.12082 18.6773 5.50235 18.3648 5.96104L4.03143 26.8247C3.71553 27.2797 3.54988 27.7962 3.55128 28.3216C3.55268 28.8471 3.72107 29.363 4.0394 29.8168C4.35772 30.2707 4.81465 30.6466 5.36388 30.9062C5.91311 31.1659 6.53512 31.3002 7.16685 31.2954H35.8335C36.4622 31.2949 37.0797 31.1568 37.6239 30.895C38.1681 30.6332 38.6199 30.2569 38.934 29.8039C39.2481 29.3509 39.4133 28.8371 39.4132 28.3142C39.413 27.7912 39.2474 27.2775 38.9331 26.8247Z" stroke="#FF6900" stroke-width="1.66667" stroke-linecap="round" stroke-linejoin="round"/>
<path d="M21.5 13.4123V19.3734" stroke="#FF6900" stroke-width="1.66667" stroke-linecap="round" stroke-linejoin="round"/>
<path d="M21.5 25.3344H21.5188" stroke="#FF6900" stroke-width="1.66667" stroke-linecap="round" stroke-linejoin="round"/>
</svg>
